<svg width="28" height="29" viewBox="0 0 28 29" fill="none" xmlns="http://www.w3.org/2000/svg">
<path d="M14 28.5C21.732 28.5 28 22.232 28 14.5C28 6.76801 21.732 0.5 14 0.5C6.26801 0.5 0 6.76801 0 14.5C0 22.232 6.26801 28.5 14 28.5Z" fill="#FDD835"/>
<path opacity="0.5" d="M14 0.5C6.26828 0.5 0 6.76828 0 14.5C0 22.2317 6.26828 28.5 14 28.5C21.7317 28.5 28 22.2317 28 14.5C28 6.76828 21.7317 0.5 14 0.5ZM14 27.8984C6.60023 27.8984 0.601562 21.8998 0.601562 14.5C0.601562 7.10023 6.60023 1.10156 14 1.10156C21.3998 1.10156 27.3984 7.10023 27.3984 14.5C27.3984 21.8998 21.3998 27.8984 14 27.8984Z" fill="white"/>
<path opacity="0.5" d="M19.5857 1.65883L1.15875 20.0858C0.542969 18.6716 0.153047 17.1343 0.0371094 15.5227L15.0226 0.537186C16.6342 0.653123 18.1715 1.04305 19.5857 1.65883Z" fill="white"/>
<path opacity="0.5" d="M26.2002 7.62852L7.12846 26.7002C5.94229 26.0309 4.86385 25.1936 3.92432 24.2202L23.7201 4.42438C24.6935 5.36391 25.5313 6.44235 26.2002 7.62852Z" fill="white"/>
<path opacity="0.5" d="M23.1479 3.90265L3.40193 23.6481C3.09295 23.291 2.80201 22.9175 2.53076 22.5298L22.0296 3.03093C22.4168 3.30218 22.7903 3.59312 23.1479 3.90265Z" fill="white"/>
<path opacity="0.5" d="M27.5607 11.0066L10.5064 28.0609C9.99129 27.9285 9.48816 27.7677 8.99707 27.5801L27.0795 9.49773C27.2671 9.98827 27.4284 10.4919 27.5602 11.0071L27.5607 11.0066Z" fill="white"/>
<path opacity="0.5" d="M25.3733 15.1059C25.3733 21.1637 20.4618 26.0752 14.4041 26.0752C11.0009 26.0752 7.95861 24.5253 5.94775 22.0923C7.95096 24.2579 10.8177 25.6136 13.9999 25.6136C20.0577 25.6136 24.9692 20.7021 24.9692 14.6444C24.9692 11.9904 24.0263 9.55571 22.4568 7.65805C24.2675 9.61477 25.3733 12.231 25.3733 15.1059Z" fill="white"/>
<path d="M14 25.6136C20.0581 25.6136 24.9692 20.7025 24.9692 14.6444C24.9692 8.58624 20.0581 3.67516 14 3.67516C7.94185 3.67516 3.03076 8.58624 3.03076 14.6444C3.03076 20.7025 7.94185 25.6136 14 25.6136Z" fill="#F39E09"/>
<path d="M22.3125 7.48687C20.3913 5.83094 17.8899 4.83016 15.155 4.83016C9.09725 4.83016 4.18576 9.74164 4.18576 15.7994C4.18576 18.5343 5.18709 21.0357 6.84248 22.9569C4.50842 20.9449 3.03076 17.9672 3.03076 14.6444C3.03076 8.58664 7.94225 3.67516 14 3.67516C17.3222 3.67516 20.3005 5.15226 22.3125 7.48687Z" fill="#E88102"/>
<path d="M15.433 11.84C15.7403 12.1162 15.894 12.5055 15.894 13.007H18.8537V12.1408C18.8537 12.1408 18.4933 11.3412 18.2702 11.0066C17.8813 10.423 17.3356 9.97351 16.6339 9.65796C16.2484 9.4846 15.8349 9.35937 15.3942 9.28116V7.71655H14.3551V9.18601C14.3212 9.18601 14.0379 9.1871 13.9324 9.19093V7.71655H12.8933V9.30632C12.5088 9.37851 12.1446 9.48296 11.8006 9.62022C11.0733 9.91062 10.5111 10.3164 10.1135 10.8381C9.86471 11.1646 9.51744 11.7776 9.51744 11.7776V12.6439C9.51744 14.0138 10.3153 15.0906 11.9106 15.8743C12.1917 16.0132 12.5192 16.1548 12.8933 16.2998V19.3196C12.7965 19.2655 12.7096 19.2042 12.6335 19.1348C12.2923 18.8219 12.1217 18.3358 12.1217 17.6757L9.14502 16.8094V17.6757C9.14502 18.4878 9.34955 19.2053 9.75807 19.8282C10.1666 20.4511 10.7758 20.9416 11.5846 21.2998C11.9964 21.4819 12.4323 21.6176 12.8928 21.7073V23.3052H13.9318V21.8292C14.0516 21.8347 14.1724 21.8374 14.2949 21.8374C14.3152 21.8374 14.3343 21.8369 14.3546 21.8363V23.3052H15.3936V21.7663C16.2992 21.6438 17.0468 21.3605 17.6353 20.9154C18.4474 20.3007 18.8531 19.4552 18.8531 18.3784V17.5122C18.8531 17.5122 17.9377 15.8294 16.8576 15.2071C16.4529 14.9736 15.9651 14.7516 15.3942 14.5416V11.8105C15.4067 11.8208 15.4204 11.8307 15.433 11.8416V11.84ZM12.8933 13.4604C12.6106 13.2214 12.4689 12.9573 12.4689 12.6685C12.4689 12.3223 12.6106 12.0347 12.8933 11.8055V13.4604ZM14.3551 19.6018C14.3349 19.6018 14.3157 19.6034 14.2955 19.6034C14.1686 19.6034 14.0478 19.5985 13.9324 19.5903V16.6705C14.0828 16.7225 14.2233 16.7744 14.3551 16.8258V19.6023V19.6018ZM14.3551 14.1855C14.2042 14.1325 14.0636 14.0794 13.9324 14.0269V11.4369C14.0138 11.4304 14.0975 11.426 14.1856 11.426C14.2435 11.426 14.2999 11.4282 14.3551 11.4315V14.1855ZM15.4242 17.3793C15.7316 17.6216 15.8853 17.9601 15.8853 18.3943C15.8853 18.7776 15.7425 19.0751 15.4581 19.2862C15.4379 19.3016 15.4155 19.3147 15.3942 19.3289V17.3563C15.404 17.364 15.4149 17.3716 15.4242 17.3793Z" fill="#DB6704"/>
<path d="M16.8585 14.3398C16.4538 14.1062 15.966 13.8842 15.3951 13.6742V10.9431C15.4077 10.9535 15.4213 10.9633 15.4339 10.9743C15.7413 11.2505 15.8949 11.6398 15.8949 12.1413H18.8546C18.8546 11.3916 18.6599 10.7249 18.2711 10.1414C17.8823 9.55788 17.3365 9.10835 16.6348 8.7928C16.2493 8.61944 15.8359 8.49421 15.3951 8.416V6.85139H14.356V8.32085C14.3221 8.32085 14.2882 8.31975 14.2543 8.31975C14.146 8.31975 14.0394 8.32194 13.9338 8.32632V6.85194H12.8948V8.44171C12.5103 8.51389 12.1461 8.61835 11.8021 8.75561C11.0748 9.046 10.5126 9.45179 10.115 9.9735C9.71742 10.4952 9.51891 11.0968 9.51891 11.7793C9.51891 13.1492 10.3168 14.226 11.912 15.0097C12.1931 15.1486 12.5207 15.2902 12.8948 15.4351V18.455C12.798 18.4008 12.711 18.3396 12.635 18.2701C12.2937 17.9573 12.1231 17.4712 12.1231 16.8111H9.14648C9.14648 17.6232 9.35102 18.3407 9.75953 18.9636C10.168 19.5865 10.7773 20.077 11.5861 20.4352C11.9979 20.6173 12.4337 20.753 12.8942 20.8426V22.4406H13.9333V20.9646C14.053 20.9701 14.1739 20.9728 14.2964 20.9728C14.3166 20.9728 14.3358 20.9723 14.356 20.9717V22.4406H15.3951V20.9017C16.3007 20.7792 17.0483 20.4959 17.6367 20.0508C18.4488 19.4361 18.8546 18.5906 18.8546 17.5138C18.8546 16.1663 18.1891 15.1092 16.8591 14.3425L16.8585 14.3398ZM14.1859 10.5598C14.2439 10.5598 14.3002 10.5619 14.3555 10.5652V13.3193C14.2045 13.2662 14.064 13.2132 13.9327 13.1607V10.5707C14.0142 10.5641 14.0979 10.5598 14.1859 10.5598ZM12.4693 11.8028C12.4693 11.4566 12.6109 11.169 12.8937 10.9398V12.5947C12.6109 12.3557 12.4693 12.0916 12.4693 11.8028ZM14.2959 18.7372C14.169 18.7372 14.0481 18.7323 13.9327 18.7241V15.8043C14.0831 15.8562 14.2237 15.9082 14.3555 15.9596V18.7361C14.3352 18.7361 14.3161 18.7377 14.2959 18.7377V18.7372ZM15.4585 18.42C15.4383 18.4353 15.4159 18.4484 15.3945 18.4626V16.4901C15.4044 16.4977 15.4153 16.5054 15.4246 16.513C15.732 16.7553 15.8856 17.0938 15.8856 17.528C15.8856 17.9114 15.7429 18.2089 15.4585 18.42Z" fill="#FDD835"/>
<path opacity="0.5" d="M11.8007 8.75398C12.1113 8.63038 12.4378 8.53359 12.7818 8.46249L9.51807 11.7262C9.52791 11.0651 9.72643 10.4805 10.1136 9.97242C10.5112 9.45124 11.0739 9.04492 11.8007 8.75452V8.75398Z" fill="white"/>
<path opacity="0.5" d="M12.8936 6.85031H13.9332V7.31133L12.8936 8.35039V6.85031Z" fill="white"/>
<path opacity="0.5" d="M14.3938 6.85031L14.3555 6.88859V6.85031H14.3938Z" fill="white"/>
<path opacity="0.5" d="M18.2611 15.568C17.9319 15.0988 17.4643 14.6892 16.8584 14.3403C16.4537 14.1063 15.9659 13.8848 15.3949 13.6742V12.7505L12.7628 15.3827C12.8055 15.3996 12.8492 15.4166 12.8941 15.4341V18.4534C12.7973 18.3998 12.7103 18.338 12.6343 18.2685C12.293 17.9557 12.123 17.4695 12.123 16.8095H11.336L9.54883 18.5966C9.61172 18.7213 9.68227 18.8433 9.75938 18.9614C10.1679 19.5843 10.7766 20.0748 11.5859 20.433C11.9977 20.6152 12.4336 20.7508 12.8941 20.8399V20.9351L15.3949 18.4342V16.4906C15.4048 16.4983 15.4157 16.5054 15.425 16.513C15.7323 16.7553 15.886 17.0938 15.886 17.528C15.886 17.7298 15.8461 17.9081 15.7673 18.0618L18.2611 15.568ZM14.3553 18.7356C14.3351 18.7361 14.3159 18.7372 14.2957 18.7372C14.1688 18.7372 14.048 18.7328 13.9326 18.7241V15.8038C14.0824 15.8557 14.2235 15.9077 14.3553 15.9591V18.7356Z" fill="white"/>
<path opacity="0.5" d="M18.8537 12.1413H16.0034L18.1592 9.98553C18.198 10.0364 18.2347 10.0883 18.2702 10.1414C18.6596 10.7244 18.8537 11.3916 18.8537 12.1413Z" fill="white"/>
<path opacity="0.5" d="M9.14551 16.8094H10.2409L9.25652 17.7938C9.1827 17.4827 9.14551 17.1545 9.14551 16.8094Z" fill="white"/>
<path opacity="0.5" d="M13.9331 11.128V13.118L11.9999 15.0512C11.9698 15.037 11.9403 15.0223 11.9113 15.008C11.4694 14.7915 11.0899 14.5525 10.7705 14.2905L12.6824 12.3787C12.7409 12.453 12.8109 12.5247 12.8935 12.5947V12.1676L13.9325 11.1285L13.9331 11.128Z" fill="white"/>
<path opacity="0.5" d="M17.6318 9.41898L15.7155 11.3352C15.6434 11.1991 15.5493 11.0782 15.4334 10.9743C15.4213 10.9628 15.4071 10.9535 15.3945 10.9431V11.6562L14.3555 12.6953V10.7052L16.3756 8.68507C16.4631 8.71789 16.5495 8.75398 16.6343 8.79171C17.0116 8.96125 17.3441 9.1707 17.6318 9.41843V9.41898Z" fill="white"/>
<path opacity="0.5" d="M14.3555 22.2219L15.3945 21.1823V22.4379H14.3555V22.2219Z" fill="white"/>
<path opacity="0.5" d="M18.8485 17.7287C18.7971 18.7027 18.393 19.4755 17.6366 20.048C17.1237 20.4374 16.4877 20.7021 15.7324 20.8448L18.848 17.7293L18.8485 17.7287Z" fill="white"/>
<path opacity="0.25" d="M23.1479 8.59046C16.0445 11.0842 10.3439 16.5612 7.54992 23.5174C7.30547 23.3397 7.06867 23.1516 6.84062 22.9541C5.18578 21.0335 4.18555 18.5327 4.18555 15.7988C4.18555 9.74109 9.09703 4.82961 15.1548 4.82961C17.8886 4.82961 20.3895 5.82984 22.3101 7.48468C22.612 7.83468 22.892 8.20382 23.1484 8.59046H23.1479Z" fill="white"/>
</svg>
