<svg width="24" height="25" viewBox="0 0 24 25" fill="none" xmlns="http://www.w3.org/2000/svg">
<path d="M12 24.5C18.6274 24.5 24 19.1274 24 12.5C24 5.87258 18.6274 0.5 12 0.5C5.37258 0.5 0 5.87258 0 12.5C0 19.1274 5.37258 24.5 12 24.5Z" fill="#FDD835"/>
<path opacity="0.5" d="M12 0.5C5.37281 0.5 0 5.87281 0 12.5C0 19.1272 5.37281 24.5 12 24.5C18.6272 24.5 24 19.1272 24 12.5C24 5.87281 18.6272 0.5 12 0.5ZM12 23.9844C5.65734 23.9844 0.515625 18.8427 0.515625 12.5C0.515625 6.15734 5.65734 1.01562 12 1.01562C18.3427 1.01562 23.4844 6.15734 23.4844 12.5C23.4844 18.8427 18.3427 23.9844 12 23.9844Z" fill="white"/>
<path opacity="0.5" d="M16.7878 1.49327L0.993282 17.2878C0.465469 16.0756 0.131251 14.758 0.0318756 13.3765L12.8766 0.53186C14.258 0.631235 15.5756 0.965454 16.7878 1.49327Z" fill="white"/>
<path opacity="0.5" d="M22.4573 6.61011L6.11016 22.9573C5.09344 22.3836 4.16906 21.6659 3.36375 20.8315L20.3316 3.86371C21.1659 4.66902 21.8841 5.5934 22.4573 6.61011Z" fill="white"/>
<path opacity="0.5" d="M19.8413 3.41656L2.9161 20.3412C2.65125 20.0352 2.40188 19.715 2.16938 19.3827L18.8827 2.66937C19.2145 2.90187 19.5347 3.15125 19.8413 3.41656Z" fill="white"/>
<path opacity="0.5" d="M23.6236 9.50562L9.00563 24.1236C8.56406 24.0102 8.13281 23.8723 7.71188 23.7116L23.2111 8.21234C23.3719 8.63281 23.5102 9.06453 23.6231 9.50609L23.6236 9.50562Z" fill="white"/>
<path opacity="0.5" d="M21.7486 13.0193C21.7486 18.2117 17.5388 22.4215 12.3464 22.4215C9.42938 22.4215 6.82172 21.0931 5.09813 19.0076C6.81516 20.8639 9.27234 22.0259 12 22.0259C17.1923 22.0259 21.4022 17.8161 21.4022 12.6237C21.4022 10.3489 20.5941 8.262 19.2488 6.63544C20.8008 8.31262 21.7486 10.5551 21.7486 13.0193Z" fill="white"/>
<path d="M12 22.0259C17.1927 22.0259 21.4022 17.8164 21.4022 12.6237C21.4022 7.43106 17.1927 3.22156 12 3.22156C6.80732 3.22156 2.59781 7.43106 2.59781 12.6237C2.59781 17.8164 6.80732 22.0259 12 22.0259Z" fill="#F39E09"/>
<path d="M19.125 6.48874C17.4783 5.06937 15.3342 4.21156 12.99 4.21156C7.79766 4.21156 3.58781 8.4214 3.58781 13.6137C3.58781 15.958 4.44609 18.102 5.865 19.7487C3.86438 18.0242 2.59781 15.4719 2.59781 12.6237C2.59781 7.4314 6.80766 3.22156 12 3.22156C14.8477 3.22156 17.4005 4.48765 19.125 6.48874Z" fill="#E88102"/>
<path d="M13.2286 10.22C13.492 10.4568 13.6238 10.7905 13.6238 11.2204H16.1606V10.4779C16.1606 10.4779 15.8517 9.79254 15.6605 9.50567C15.3272 9.00551 14.8594 8.6202 14.258 8.34973C13.9275 8.20114 13.5731 8.09379 13.1953 8.02676V6.68567H12.3047V7.9452C12.2756 7.9452 12.0328 7.94614 11.9423 7.94942V6.68567H11.0517V8.04832C10.7222 8.1102 10.41 8.19973 10.1152 8.31739C9.49172 8.56629 9.00985 8.91411 8.66907 9.36129C8.45578 9.64114 8.15813 10.1666 8.15813 10.1666V10.9091C8.15813 12.0833 8.84203 13.0063 10.2094 13.678C10.4503 13.7971 10.7311 13.9185 11.0517 14.0427V16.6311C10.9688 16.5847 10.8942 16.5322 10.8291 16.4727C10.5366 16.2046 10.3903 15.7879 10.3903 15.2221L7.83891 14.4796V15.2221C7.83891 15.9182 8.01422 16.5332 8.36438 17.0671C8.71453 17.601 9.23672 18.0214 9.93 18.3285C10.283 18.4846 10.6566 18.6008 11.0513 18.6777V20.0474H11.9419V18.7822C12.0445 18.7869 12.1481 18.7893 12.2531 18.7893C12.2705 18.7893 12.2869 18.7888 12.3042 18.7883V20.0474H13.1948V18.7283C13.9711 18.6233 14.6119 18.3805 15.1163 17.9989C15.8123 17.4721 16.1602 16.7474 16.1602 15.8244V15.0819C16.1602 15.0819 15.3755 13.6396 14.4497 13.1061C14.1028 12.906 13.6847 12.7157 13.1953 12.5357V10.1947C13.2061 10.2036 13.2178 10.2121 13.2286 10.2214V10.22ZM11.0517 11.609C10.8094 11.4041 10.688 11.1777 10.688 10.9302C10.688 10.6335 10.8094 10.3869 11.0517 10.1905V11.609ZM12.3047 16.873C12.2873 16.873 12.2709 16.8744 12.2536 16.8744C12.1448 16.8744 12.0413 16.8702 11.9423 16.8632V14.3605C12.0713 14.405 12.1917 14.4496 12.3047 14.4936V16.8735V16.873ZM12.3047 12.2305C12.1753 12.185 12.0548 12.1396 11.9423 12.0946V9.87458C12.0122 9.86895 12.0839 9.8652 12.1594 9.8652C12.2091 9.8652 12.2573 9.86707 12.3047 9.86989V12.2305ZM13.2211 14.968C13.4845 15.1757 13.6163 15.4658 13.6163 15.838C13.6163 16.1666 13.4939 16.4216 13.2502 16.6025C13.2328 16.6157 13.2136 16.6269 13.1953 16.6391V14.9483C13.2038 14.9549 13.2131 14.9614 13.2211 14.968Z" fill="#DB6704"/>
<path d="M14.4502 12.3627C14.1033 12.1625 13.6852 11.9722 13.1958 11.7922V9.45128C13.2066 9.46019 13.2183 9.46862 13.2291 9.478C13.4925 9.71472 13.6242 10.0485 13.6242 10.4783H16.1611C16.1611 9.83565 15.9942 9.26425 15.6609 8.76409C15.3277 8.26394 14.8598 7.87862 14.2584 7.60815C13.928 7.45956 13.5736 7.35222 13.1958 7.28519V5.94409H12.3052V7.20362C12.2761 7.20362 12.247 7.20269 12.218 7.20269C12.1252 7.20269 12.0337 7.20456 11.9433 7.20831V5.94456H11.0527V7.30722C10.7231 7.36909 10.4109 7.45862 10.1161 7.57628C9.49266 7.82519 9.01078 8.173 8.67 8.62019C8.32922 9.06737 8.15906 9.583 8.15906 10.168C8.15906 11.3422 8.84297 12.2652 10.2103 12.9369C10.4513 13.056 10.732 13.1774 11.0527 13.3016V15.89C10.9697 15.8436 10.8952 15.7911 10.83 15.7316C10.5375 15.4635 10.3912 15.0467 10.3912 14.481H7.83984C7.83984 15.1771 8.01516 15.7921 8.36531 16.326C8.71547 16.8599 9.23766 17.2803 9.93094 17.5874C10.2839 17.7435 10.6575 17.8597 11.0522 17.9366V19.3063H11.9428V18.0411C12.0455 18.0458 12.1491 18.0482 12.2541 18.0482C12.2714 18.0482 12.2878 18.0477 12.3052 18.0472V19.3063H13.1958V17.9872C13.972 17.8822 14.6128 17.6394 15.1172 17.2578C15.8133 16.731 16.1611 16.0063 16.1611 15.0833C16.1611 13.9283 15.5906 13.0222 14.4506 12.365L14.4502 12.3627ZM12.1594 9.12269C12.2091 9.12269 12.2573 9.12456 12.3047 9.12737V11.488C12.1753 11.4425 12.0548 11.3971 11.9423 11.3521V9.13206C12.0122 9.12644 12.0839 9.12269 12.1594 9.12269ZM10.688 10.1882C10.688 9.89144 10.8094 9.64487 11.0517 9.44847V10.8669C10.8094 10.6621 10.688 10.4357 10.688 10.1882ZM12.2536 16.1319C12.1448 16.1319 12.0412 16.1277 11.9423 16.1207V13.618C12.0712 13.6625 12.1917 13.7071 12.3047 13.7511V16.131C12.2873 16.131 12.2709 16.1324 12.2536 16.1324V16.1319ZM13.2502 15.86C13.2328 15.8732 13.2136 15.8844 13.1953 15.8966V14.2058C13.2037 14.2124 13.2131 14.2189 13.2211 14.2255C13.4845 14.4332 13.6163 14.7233 13.6163 15.0955C13.6163 15.4241 13.4939 15.6791 13.2502 15.86Z" fill="#FDD835"/>
<path opacity="0.5" d="M10.1152 7.57486C10.3814 7.46892 10.6613 7.38595 10.9561 7.32501L8.1586 10.1225C8.16703 9.55579 8.33719 9.0547 8.66906 8.61923C9.00985 8.17251 9.49219 7.82423 10.1152 7.57532V7.57486Z" fill="white"/>
<path opacity="0.5" d="M11.0517 5.94318H11.9428V6.33833L11.0517 7.22896V5.94318Z" fill="white"/>
<path opacity="0.5" d="M12.3375 5.94318L12.3047 5.97599V5.94318H12.3375Z" fill="white"/>
<path opacity="0.5" d="M15.6525 13.4155C15.3703 13.0133 14.9695 12.6622 14.4502 12.3631C14.1033 12.1625 13.6852 11.9727 13.1958 11.7922V11.0005L10.9397 13.2566C10.9763 13.2711 11.0138 13.2856 11.0522 13.3006V15.8886C10.9692 15.8427 10.8947 15.7897 10.8295 15.7302C10.537 15.4621 10.3913 15.0453 10.3913 14.4796H9.71672L8.18484 16.0114C8.23875 16.1183 8.29922 16.2228 8.36531 16.3241C8.71547 16.858 9.23719 17.2785 9.93094 17.5855C10.2839 17.7416 10.6575 17.8578 11.0522 17.9342V18.0158L13.1958 15.8722V14.2063C13.2042 14.2128 13.2136 14.2189 13.2216 14.2255C13.485 14.4331 13.6167 14.7233 13.6167 15.0955C13.6167 15.2685 13.5825 15.4213 13.515 15.553L15.6525 13.4155ZM12.3047 16.1305C12.2873 16.131 12.2709 16.1319 12.2536 16.1319C12.1448 16.1319 12.0413 16.1281 11.9423 16.1206V13.6175C12.0708 13.6621 12.1917 13.7066 12.3047 13.7506V16.1305Z" fill="white"/>
<path opacity="0.5" d="M16.1606 10.4783H13.7175L15.5653 8.63049C15.5986 8.67409 15.63 8.71862 15.6605 8.76409C15.9942 9.26377 16.1606 9.83565 16.1606 10.4783Z" fill="white"/>
<path opacity="0.5" d="M7.83938 14.4796H8.77828L7.93453 15.3233C7.87125 15.0566 7.83938 14.7753 7.83938 14.4796Z" fill="white"/>
<path opacity="0.5" d="M11.9428 9.60974V11.3155L10.2858 12.9726C10.26 12.9604 10.2347 12.9477 10.2098 12.9355C9.8311 12.7499 9.50578 12.5451 9.23203 12.3205L10.8708 10.6818C10.9209 10.7455 10.9809 10.8069 11.0517 10.8669V10.5008L11.9423 9.61021L11.9428 9.60974Z" fill="white"/>
<path opacity="0.5" d="M15.113 8.14487L13.4705 9.78737C13.4086 9.67065 13.328 9.56706 13.2286 9.478C13.2183 9.46815 13.2061 9.46018 13.1953 9.45128V10.0625L12.3047 10.9532V9.24737L14.0363 7.51581C14.1113 7.54393 14.1853 7.57487 14.258 7.60721C14.5814 7.75253 14.8664 7.93206 15.113 8.1444V8.14487Z" fill="white"/>
<path opacity="0.5" d="M12.3047 19.1188L13.1953 18.2277V19.3039H12.3047V19.1188Z" fill="white"/>
<path opacity="0.5" d="M16.1559 15.2675C16.1119 16.1024 15.7655 16.7647 15.1172 17.2555C14.6775 17.5892 14.1323 17.8161 13.485 17.9385L16.1555 15.268L16.1559 15.2675Z" fill="white"/>
<path opacity="0.25" d="M19.8413 7.43471C13.7527 9.57221 8.86641 14.2667 6.47156 20.2292C6.26203 20.0769 6.05906 19.9157 5.8636 19.7464C4.44516 18.1002 3.58781 15.9566 3.58781 13.6133C3.58781 8.42096 7.79766 4.21112 12.99 4.21112C15.3333 4.21112 17.4769 5.06846 19.1231 6.4869C19.3819 6.7869 19.6219 7.10331 19.8417 7.43471H19.8413Z" fill="white"/>
</svg>
