<svg width="29" height="29" viewBox="0 0 29 29" fill="none" xmlns="http://www.w3.org/2000/svg">
<path d="M14.5 28.5C22.232 28.5 28.5 22.232 28.5 14.5C28.5 6.76801 22.232 0.5 14.5 0.5C6.76801 0.5 0.5 6.76801 0.5 14.5C0.5 22.232 6.76801 28.5 14.5 28.5Z" fill="#FDD835"/>
<path opacity="0.5" d="M14.5 0.5C6.76828 0.5 0.5 6.76828 0.5 14.5C0.5 22.2317 6.76828 28.5 14.5 28.5C22.2317 28.5 28.5 22.2317 28.5 14.5C28.5 6.76828 22.2317 0.5 14.5 0.5ZM14.5 27.8984C7.10023 27.8984 1.10156 21.8998 1.10156 14.5C1.10156 7.10023 7.10023 1.10156 14.5 1.10156C21.8998 1.10156 27.8984 7.10023 27.8984 14.5C27.8984 21.8998 21.8998 27.8984 14.5 27.8984Z" fill="white"/>
<path opacity="0.5" d="M20.0858 1.65887L1.65884 20.0858C1.04306 18.6716 0.653138 17.1343 0.537201 15.5227L15.5227 0.537231C17.1343 0.653169 18.6716 1.04309 20.0858 1.65887Z" fill="white"/>
<path opacity="0.5" d="M26.7002 7.62858L7.62852 26.7003C6.44235 26.0309 5.36391 25.1937 4.42438 24.2202L24.2202 4.42444C25.1936 5.36397 26.0314 6.44241 26.7002 7.62858Z" fill="white"/>
<path opacity="0.5" d="M23.6481 3.90272L3.90212 23.6482C3.59313 23.2911 3.30219 22.9176 3.03094 22.5298L22.5298 3.03101C22.917 3.30226 23.2905 3.59319 23.6481 3.90272Z" fill="white"/>
<path opacity="0.5" d="M28.0609 11.0066L11.0066 28.0609C10.4914 27.9286 9.98829 27.7678 9.49719 27.5802L27.5796 9.4978C27.7672 9.98835 27.9285 10.492 28.0603 11.0072L28.0609 11.0066Z" fill="white"/>
<path opacity="0.5" d="M25.8734 15.106C25.8734 21.1637 20.9619 26.0752 14.9041 26.0752C11.5009 26.0752 8.45867 24.5253 6.44781 22.0923C8.45102 24.2579 11.3177 25.6136 14.5 25.6136C20.5577 25.6136 25.4692 20.7021 25.4692 14.6444C25.4692 11.9904 24.5264 9.55574 22.9569 7.65808C24.7676 9.6148 25.8734 12.231 25.8734 15.106Z" fill="white"/>
<path d="M14.5 25.6136C20.5581 25.6136 25.4692 20.7025 25.4692 14.6444C25.4692 8.58626 20.5581 3.67517 14.5 3.67517C8.44188 3.67517 3.53079 8.58626 3.53079 14.6444C3.53079 20.7025 8.44188 25.6136 14.5 25.6136Z" fill="#F39E09"/>
<path d="M22.8125 7.48689C20.8913 5.83095 18.3899 4.83017 15.655 4.83017C9.59728 4.83017 4.68579 9.74166 4.68579 15.7994C4.68579 18.5343 5.68712 21.0357 7.34251 22.9569C5.00845 20.9449 3.53079 17.9672 3.53079 14.6444C3.53079 8.58666 8.44228 3.67517 14.5 3.67517C17.8223 3.67517 20.8006 5.15228 22.8125 7.48689Z" fill="#E88102"/>
<path d="M15.9334 11.84C16.2407 12.1162 16.3944 12.5055 16.3944 13.007H19.3541V12.1408C19.3541 12.1408 18.9937 11.3412 18.7705 11.0066C18.3817 10.423 17.8359 9.97351 17.1343 9.65796C16.7487 9.4846 16.3353 9.35937 15.8945 9.28116V7.71655H14.8555V9.18601C14.8216 9.18601 14.5383 9.1871 14.4327 9.19093V7.71655H13.3937V9.30632C13.0092 9.37851 12.645 9.48296 12.301 9.62022C11.5737 9.91062 11.0115 10.3164 10.6139 10.8381C10.3651 11.1646 10.0178 11.7776 10.0178 11.7776V12.6439C10.0178 14.0138 10.8157 15.0906 12.4109 15.8743C12.692 16.0132 13.0196 16.1548 13.3937 16.2998V19.3196C13.2969 19.2655 13.2099 19.2042 13.1339 19.1348C12.7927 18.8219 12.622 18.3358 12.622 17.6757L9.64539 16.8094V17.6757C9.64539 18.4878 9.84992 19.2053 10.2584 19.8282C10.6669 20.4511 11.2762 20.9416 12.085 21.2998C12.4968 21.4819 12.9327 21.6176 13.3931 21.7073V23.3052H14.4322V21.8292C14.5519 21.8347 14.6728 21.8374 14.7953 21.8374C14.8155 21.8374 14.8347 21.8369 14.8549 21.8363V23.3052H15.894V21.7663C16.7996 21.6438 17.5472 21.3605 18.1356 20.9154C18.9477 20.3007 19.3535 19.4552 19.3535 18.3784V17.5122C19.3535 17.5122 18.438 15.8294 17.358 15.2071C16.9533 14.9736 16.4655 14.7516 15.8945 14.5416V11.8105C15.9071 11.8208 15.9208 11.8307 15.9334 11.8416V11.84ZM13.3937 13.4604C13.1109 13.2214 12.9693 12.9573 12.9693 12.6685C12.9693 12.3223 13.1109 12.0347 13.3937 11.8055V13.4604ZM14.8555 19.6018C14.8352 19.6018 14.8161 19.6034 14.7959 19.6034C14.669 19.6034 14.5481 19.5985 14.4327 19.5903V16.6705C14.5831 16.7225 14.7237 16.7744 14.8555 16.8258V19.6023V19.6018ZM14.8555 14.1855C14.7045 14.1325 14.564 14.0794 14.4327 14.0269V11.4369C14.5142 11.4304 14.5979 11.426 14.6859 11.426C14.7439 11.426 14.8002 11.4282 14.8555 11.4315V14.1855ZM15.9246 17.3793C16.2319 17.6216 16.3856 17.9601 16.3856 18.3943C16.3856 18.7776 16.2429 19.0751 15.9585 19.2862C15.9383 19.3016 15.9159 19.3147 15.8945 19.3289V17.3563C15.9044 17.364 15.9153 17.3716 15.9246 17.3793Z" fill="#DB6704"/>
<path d="M17.3585 14.3398C16.9538 14.1063 16.466 13.8843 15.8951 13.6743V10.9432C15.9077 10.9536 15.9213 10.9634 15.9339 10.9743C16.2413 11.2505 16.3949 11.6399 16.3949 12.1414H19.3546C19.3546 11.3916 19.1599 10.725 18.7711 10.1414C18.3823 9.55793 17.8365 9.10839 17.1348 8.79285C16.7493 8.61949 16.3359 8.49425 15.8951 8.41605V6.85144H14.856V8.32089C14.8221 8.32089 14.7882 8.3198 14.7543 8.3198C14.646 8.3198 14.5394 8.32199 14.4338 8.32636V6.85199H13.3948V8.44175C13.0103 8.51394 12.6461 8.61839 12.3021 8.75566C11.5748 9.04605 11.0126 9.45183 10.615 9.97355C10.2174 10.4953 10.0189 11.0968 10.0189 11.7793C10.0189 13.1493 10.8168 14.2261 12.412 15.0097C12.6931 15.1486 13.0207 15.2903 13.3948 15.4352V18.455C13.298 18.4009 13.211 18.3396 13.135 18.2702C12.7937 17.9574 12.6231 17.4712 12.6231 16.8111H9.64648C9.64648 17.6232 9.85102 18.3407 10.2595 18.9636C10.668 19.5865 11.2773 20.0771 12.0861 20.4353C12.4979 20.6174 12.9337 20.753 13.3942 20.8427V22.4407H14.4333V20.9646C14.553 20.9701 14.6739 20.9728 14.7964 20.9728C14.8166 20.9728 14.8358 20.9723 14.856 20.9718V22.4407H15.8951V20.9018C16.8007 20.7793 17.5483 20.496 18.1367 20.0508C18.9488 19.4361 19.3546 18.5907 19.3546 17.5139C19.3546 16.1664 18.6891 15.1093 17.3591 14.3425L17.3585 14.3398ZM14.6859 10.5598C14.7439 10.5598 14.8002 10.562 14.8555 10.5653V13.3193C14.7045 13.2663 14.564 13.2132 14.4327 13.1607V10.5707C14.5142 10.5642 14.5979 10.5598 14.6859 10.5598ZM12.9693 11.8028C12.9693 11.4567 13.1109 11.169 13.3937 10.9399V12.5947C13.1109 12.3557 12.9693 12.0916 12.9693 11.8028ZM14.7959 18.7372C14.669 18.7372 14.5481 18.7323 14.4327 18.7241V15.8043C14.5831 15.8563 14.7237 15.9082 14.8555 15.9596V18.7361C14.8352 18.7361 14.8161 18.7378 14.7959 18.7378V18.7372ZM15.9585 18.42C15.9383 18.4353 15.9159 18.4485 15.8945 18.4627V16.4901C15.9044 16.4978 15.9153 16.5054 15.9246 16.5131C16.232 16.7553 16.3856 17.0939 16.3856 17.5281C16.3856 17.9114 16.2429 18.2089 15.9585 18.42Z" fill="#FDD835"/>
<path opacity="0.5" d="M12.301 8.75401C12.6117 8.63041 12.9381 8.53362 13.2821 8.46252L10.0184 11.7263C10.0282 11.0651 10.2267 10.4805 10.6139 9.97245C11.0115 9.45127 11.5742 9.04495 12.301 8.75456V8.75401Z" fill="white"/>
<path opacity="0.5" d="M13.3937 6.85034H14.4333V7.31136L13.3937 8.35042V6.85034Z" fill="white"/>
<path opacity="0.5" d="M14.8938 6.85034L14.8555 6.88862V6.85034H14.8938Z" fill="white"/>
<path opacity="0.5" d="M18.7612 15.568C18.432 15.0988 17.9644 14.6892 17.3585 14.3403C16.9538 14.1063 16.466 13.8848 15.8951 13.6742V12.7505L13.263 15.3827C13.3056 15.3996 13.3494 15.4166 13.3942 15.4341V18.4534C13.2974 18.3998 13.2105 18.338 13.1344 18.2685C12.7932 17.9557 12.6231 17.4695 12.6231 16.8095H11.8362L10.049 18.5966C10.1119 18.7213 10.1824 18.8433 10.2595 18.9614C10.668 19.5843 11.2767 20.0748 12.0861 20.433C12.4979 20.6152 12.9337 20.7508 13.3942 20.8399V20.9351L15.8951 18.4342V16.4906C15.9049 16.4983 15.9159 16.5054 15.9252 16.513C16.2325 16.7553 16.3862 17.0938 16.3862 17.528C16.3862 17.7298 16.3462 17.9081 16.2675 18.0618L18.7612 15.568ZM14.8555 18.7356C14.8352 18.7361 14.8161 18.7372 14.7959 18.7372C14.669 18.7372 14.5481 18.7328 14.4327 18.7241V15.8038C14.5826 15.8557 14.7237 15.9077 14.8555 15.9591V18.7356Z" fill="white"/>
<path opacity="0.5" d="M19.3541 12.1413H16.5038L18.6595 9.98553C18.6984 10.0364 18.735 10.0883 18.7705 10.1414C19.1599 10.7244 19.3541 11.3916 19.3541 12.1413Z" fill="white"/>
<path opacity="0.5" d="M9.64594 16.8094H10.7413L9.75695 17.7938C9.68312 17.4827 9.64594 17.1545 9.64594 16.8094Z" fill="white"/>
<path opacity="0.5" d="M14.4333 11.1279V13.118L12.5001 15.0512C12.47 15.037 12.4405 15.0222 12.4115 15.008C11.9696 14.7914 11.5901 14.5525 11.2707 14.2905L13.1826 12.3786C13.2411 12.453 13.3111 12.5246 13.3937 12.5946V12.1675L14.4328 11.1285L14.4333 11.1279Z" fill="white"/>
<path opacity="0.5" d="M18.1318 9.41896L16.2155 11.3352C16.1434 11.199 16.0493 11.0782 15.9334 10.9743C15.9213 10.9628 15.9071 10.9535 15.8945 10.9431V11.6562L14.8555 12.6953V10.7052L16.8756 8.68506C16.9631 8.71787 17.0495 8.75396 17.1343 8.7917C17.5116 8.96123 17.8441 9.17068 18.1318 9.41842V9.41896Z" fill="white"/>
<path opacity="0.5" d="M14.8555 22.2219L15.8945 21.1823V22.4379H14.8555V22.2219Z" fill="white"/>
<path opacity="0.5" d="M19.3486 17.7288C19.2972 18.7027 18.8931 19.4755 18.1367 20.0481C17.6238 20.4374 16.9877 20.7021 16.2325 20.8449L19.3481 17.7293L19.3486 17.7288Z" fill="white"/>
<path opacity="0.25" d="M23.6481 8.59045C16.5448 11.0842 10.8442 16.5612 8.05017 23.5174C7.80571 23.3397 7.56892 23.1515 7.34087 22.9541C5.68603 21.0335 4.68579 18.5326 4.68579 15.7988C4.68579 9.74107 9.59727 4.82959 15.655 4.82959C18.3888 4.82959 20.8897 5.82982 22.8103 7.48467C23.1122 7.83467 23.3922 8.20381 23.6487 8.59045H23.6481Z" fill="white"/>
</svg>
