<svg width="49" height="49" viewBox="0 0 49 49" fill="none" xmlns="http://www.w3.org/2000/svg">
<path d="M30.4778 10.1147C29.9325 11.4416 28.408 12.0751 27.0825 11.5262L21.6849 9.29229C20.1773 8.66792 18.5785 8.35055 16.9763 8.33437L18.4765 3.32825C20.5003 3.57069 22.4992 4.07921 24.4181 4.85907L29.0665 6.74933C30.3901 7.28712 31.0217 8.79347 30.4778 10.1147Z" fill="url(#paint0_linear_1_70)"/>
<path d="M33.8217 10.6745C33.2002 11.9362 31.6688 12.4506 30.4111 11.8206L25.289 9.25674C23.2954 8.25824 21.0893 7.82812 18.9031 7.97655L17.049 2.81231C20.8861 2.60516 24.7483 3.3773 28.2555 5.10492L32.6688 7.27998C33.9254 7.8989 34.4414 9.41834 33.8217 10.6745Z" fill="url(#paint1_linear_1_70)"/>
<path d="M36.4611 10.0409C35.8432 11.3355 34.2859 11.8838 32.9929 11.2623L27.7273 8.73318C25.6779 7.74814 23.4189 7.34523 21.1879 7.5312L19.2254 2.30193C23.1417 2.02993 27.0967 2.75464 30.7018 4.45807L35.2384 6.60273C36.53 7.2129 37.0773 8.75191 36.4611 10.0409Z" fill="url(#paint2_linear_1_70)"/>
<path d="M24.5 32.5C30.8155 32.5 35.9353 27.3802 35.9353 21.0647C35.9353 14.7491 30.8155 9.62939 24.5 9.62939C18.1845 9.62939 13.0647 14.7491 13.0647 21.0647C13.0647 27.3802 18.1845 32.5 24.5 32.5Z" fill="url(#paint3_linear_1_70)"/>
<path d="M24.5 30.2882C29.594 30.2882 33.7235 26.1587 33.7235 21.0647C33.7235 15.9707 29.594 11.8412 24.5 11.8412C19.406 11.8412 15.2765 15.9707 15.2765 21.0647C15.2765 26.1587 19.406 30.2882 24.5 30.2882Z" fill="url(#paint4_linear_1_70)"/>
<path d="M24.5 29.1588C28.9703 29.1588 32.5941 25.535 32.5941 21.0647C32.5941 16.5944 28.9703 12.9706 24.5 12.9706C20.0298 12.9706 16.4059 16.5944 16.4059 21.0647C16.4059 25.535 20.0298 29.1588 24.5 29.1588Z" fill="url(#paint5_linear_1_70)"/>
<path d="M25.4111 19.5619V16.8193C26.6321 16.9132 26.989 17.5143 27.6089 17.5143C28.4354 17.5143 28.7736 16.4811 28.7736 15.9739C28.7736 14.6777 26.5758 14.3772 25.4111 14.3396V13.87C25.4111 13.607 25.0542 13.3628 24.6973 13.3628C24.284 13.3628 23.9835 13.607 23.9835 13.87V14.396C21.9922 14.6778 20.2264 15.8237 20.2264 18.2094C20.2264 20.6139 22.2552 21.4216 23.9835 22.0791V25.1223C22.5934 24.8781 21.9547 23.7698 21.1657 23.7698C20.4519 23.7698 19.8883 24.709 19.8883 25.3477C19.8883 26.55 21.7293 27.7147 23.9835 27.7898V28.2595C23.9835 28.5225 24.284 28.7667 24.6973 28.7667C25.0542 28.7667 25.4111 28.5224 25.4111 28.2595V27.7147C27.6089 27.3578 29.1118 25.9489 29.1118 23.6195C29.1118 21.0835 27.1205 20.2005 25.4111 19.5619ZM24.1713 19.111C23.4575 18.8104 22.969 18.4723 22.969 17.9275C22.969 17.4767 23.326 17.0446 24.1713 16.8755V19.111ZM25.2233 25.1035V22.5863C25.8995 22.9057 26.3692 23.3001 26.3692 23.9201C26.3691 24.5963 25.8619 24.9532 25.2233 25.1035Z" fill="url(#paint6_linear_1_70)"/>
<path d="M13.0734 21.4882C13.2962 27.6075 18.3264 32.5 24.5 32.5C30.6736 32.5 35.7038 27.6075 35.9267 21.4882H13.0734Z" fill="url(#paint7_linear_1_70)"/>
<path d="M35.1551 25.2237C35.1155 25.3254 35.0741 25.4261 35.0318 25.5268C33.2934 29.6256 29.2322 32.5 24.5 32.5C18.1847 32.5 13.0647 27.38 13.0647 21.0647C13.0647 19.347 13.4431 17.7188 14.1226 16.2571C14.2619 15.9541 14.4153 15.6595 14.5809 15.3724H25.3038L35.1551 25.2237Z" fill="url(#paint8_linear_1_70)"/>
<path d="M35.5046 11.4792L33.4156 9.80562C33.3237 9.73653 33.2311 9.66867 33.1378 9.60195C30.6229 7.80486 27.5411 6.98924 24.4563 7.18482C21.8765 7.34839 20.8415 7.49597 17.4708 9.17569C16.883 9.46858 16.783 10.0899 17.2474 10.5542L17.3746 10.6815C19.9096 11.7982 22.334 13.1458 24.6178 14.7059C25.9291 15.6018 26.2361 17.4075 25.3016 18.6916C24.451 19.8604 22.8562 20.1938 21.605 19.47C19.4567 18.2273 17.0715 17.4345 14.5964 17.1485C14.1235 17.0938 13.6461 17.0912 13.1713 17.125C11.6755 17.2314 8.0547 17.4638 6.84962 17.3142C6.83851 17.3128 6.82731 17.3115 6.81611 17.3101C3.66166 16.9137 1.14665 14.4843 0.630697 11.3468L0.600015 11.1601C-0.067185 7.10745 2.67879 3.28053 6.73235 2.61399L13.7319 1.46303L18.1393 0.780581C25.0554 -0.234384 32.0925 1.52825 37.6971 5.67912L39.0548 6.76119C40.365 7.73117 40.6354 9.57653 39.6591 10.8836C38.6795 12.1955 36.8138 12.4627 35.5046 11.4792Z" fill="url(#paint9_linear_1_70)"/>
<path d="M25.3015 18.6918C24.451 19.8605 22.8562 20.1939 21.605 19.4701C19.2353 18.0992 16.5776 17.276 13.8288 17.0763C13.7874 17.0733 13.7462 17.0701 13.705 17.0667C9.06047 16.6815 8.80965 9.97321 13.4121 9.23984C13.7428 9.18714 14.0818 9.2309 14.3883 9.36596L17.3745 10.6815C19.9095 11.7982 22.334 13.1458 24.6177 14.7061C25.9291 15.602 26.236 17.4077 25.3015 18.6918Z" fill="url(#paint10_linear_1_70)"/>
<path d="M44.4949 48.5H4.50508C3.33275 48.5 2.38235 47.5496 2.38235 46.3773V33.7235H46.6177V46.3773C46.6177 47.5496 45.6673 48.5 44.4949 48.5Z" fill="url(#paint11_linear_1_70)"/>
<path d="M2.38235 33.7235V37.4882L13.3941 48.5H44.4949C45.6673 48.5 46.6177 47.5496 46.6177 46.3773V33.7235H2.38235Z" fill="url(#paint12_linear_1_70)"/>
<path d="M2.38235 42.1941V46.3772C2.38235 47.5496 3.33275 48.5 4.50508 48.5H44.4949C45.6673 48.5 46.6177 47.5496 46.6177 46.3772V42.1941H2.38235Z" fill="url(#paint13_linear_1_70)"/>
<path d="M46.8826 37.4882H2.11741C1.22414 37.4882 0.5 36.7641 0.5 35.8708V30.8059C0.5 29.9126 1.22414 29.1885 2.11741 29.1885H46.8826C47.7759 29.1885 48.5 29.9126 48.5 30.8059V35.8708C48.5 36.7641 47.7759 37.4882 46.8826 37.4882Z" fill="url(#paint14_linear_1_70)"/>
<path d="M0.5 32.6882V35.8708C0.5 36.7641 1.22414 37.4882 2.11741 37.4882H46.8826C47.7759 37.4882 48.5 36.7641 48.5 35.8708V32.6882H0.5Z" fill="url(#paint15_linear_1_70)"/>
<defs>
<linearGradient id="paint0_linear_1_70" x1="23.2906" y1="10.8863" x2="23.8615" y2="8.48034" gradientUnits="userSpaceOnUse">
<stop stop-color="#FFEEE6"/>
<stop offset="1" stop-color="#FFB09E"/>
</linearGradient>
<linearGradient id="paint1_linear_1_70" x1="24.5965" y1="10.8264" x2="25.3831" y2="7.8774" gradientUnits="userSpaceOnUse">
<stop stop-color="#FFEEE6"/>
<stop offset="1" stop-color="#FFB09E"/>
</linearGradient>
<linearGradient id="paint2_linear_1_70" x1="26.502" y1="10.7273" x2="27.4807" y2="7.30171" gradientUnits="userSpaceOnUse">
<stop stop-color="#FFEEE6"/>
<stop offset="1" stop-color="#FFB09E"/>
</linearGradient>
<linearGradient id="paint3_linear_1_70" x1="19.6059" y1="16.1706" x2="33.8193" y2="30.384" gradientUnits="userSpaceOnUse">
<stop stop-color="#FEE45A"/>
<stop offset="1" stop-color="#FE9738"/>
</linearGradient>
<linearGradient id="paint4_linear_1_70" x1="28.4475" y1="25.0122" x2="16.9832" y2="13.5479" gradientUnits="userSpaceOnUse">
<stop stop-color="#FEE45A"/>
<stop offset="1" stop-color="#FE9738"/>
</linearGradient>
<linearGradient id="paint5_linear_1_70" x1="21.0359" y1="17.6006" x2="31.0964" y2="27.6611" gradientUnits="userSpaceOnUse">
<stop stop-color="#FEE45A"/>
<stop offset="1" stop-color="#FE9738"/>
</linearGradient>
<linearGradient id="paint6_linear_1_70" x1="20.9288" y1="18.3411" x2="29.917" y2="24.7881" gradientUnits="userSpaceOnUse">
<stop stop-color="#FE9738"/>
<stop offset="1" stop-color="#F46700"/>
</linearGradient>
<linearGradient id="paint7_linear_1_70" x1="24.5" y1="24.1706" x2="24.5" y2="32.9236" gradientUnits="userSpaceOnUse">
<stop stop-color="#FE7701" stop-opacity="0"/>
<stop offset="0.209" stop-color="#FA7303" stop-opacity="0.209"/>
<stop offset="0.4275" stop-color="#ED6809" stop-opacity="0.428"/>
<stop offset="0.6502" stop-color="#D85613" stop-opacity="0.65"/>
<stop offset="0.8745" stop-color="#BB3C21" stop-opacity="0.875"/>
<stop offset="1" stop-color="#A72B2B"/>
</linearGradient>
<linearGradient id="paint8_linear_1_70" x1="25.116" y1="27.2062" x2="21.1989" y2="14.8567" gradientUnits="userSpaceOnUse">
<stop stop-color="#FE7701" stop-opacity="0"/>
<stop offset="0.1854" stop-color="#F87204" stop-opacity="0.185"/>
<stop offset="0.4314" stop-color="#E7630C" stop-opacity="0.431"/>
<stop offset="0.7114" stop-color="#CB4B19" stop-opacity="0.711"/>
<stop offset="1" stop-color="#A72B2B"/>
</linearGradient>
<linearGradient id="paint9_linear_1_70" x1="16.2526" y1="-2.34836" x2="22.0879" y2="15.0634" gradientUnits="userSpaceOnUse">
<stop stop-color="#FFEEE6"/>
<stop offset="1" stop-color="#FFB09E"/>
</linearGradient>
<linearGradient id="paint10_linear_1_70" x1="17.9629" y1="15.0813" x2="18.5276" y2="21.7637" gradientUnits="userSpaceOnUse">
<stop stop-color="#F89580" stop-opacity="0"/>
<stop offset="0.3577" stop-color="#E98A75" stop-opacity="0.359"/>
<stop offset="0.9972" stop-color="#C5715A"/>
</linearGradient>
<linearGradient id="paint11_linear_1_70" x1="21.6949" y1="34.2318" x2="32.4238" y2="57.3837" gradientUnits="userSpaceOnUse">
<stop stop-color="#D9B1EE"/>
<stop offset="1" stop-color="#814AA0"/>
</linearGradient>
<linearGradient id="paint12_linear_1_70" x1="24.5" y1="50.1" x2="24.5" y2="21.834" gradientUnits="userSpaceOnUse">
<stop stop-color="#5B3374" stop-opacity="0"/>
<stop offset="1" stop-color="#5B3374"/>
</linearGradient>
<linearGradient id="paint13_linear_1_70" x1="24.5" y1="44.3588" x2="24.5" y2="49.1278" gradientUnits="userSpaceOnUse">
<stop stop-color="#5B3374" stop-opacity="0"/>
<stop offset="1" stop-color="#5B3374"/>
</linearGradient>
<linearGradient id="paint14_linear_1_70" x1="20.8471" y1="26.7263" x2="30.7501" y2="44.6517" gradientUnits="userSpaceOnUse">
<stop stop-color="#D9B1EE"/>
<stop offset="1" stop-color="#814AA0"/>
</linearGradient>
<linearGradient id="paint15_linear_1_70" x1="24.5" y1="34.1941" x2="24.5" y2="39.0172" gradientUnits="userSpaceOnUse">
<stop stop-color="#5B3374" stop-opacity="0"/>
<stop offset="1" stop-color="#5B3374"/>
</linearGradient>
</defs>
</svg>
