<svg width="48" height="49" viewBox="0 0 48 49" fill="none" xmlns="http://www.w3.org/2000/svg">
<path d="M29.978 10.1147C29.4327 11.4416 27.9082 12.0751 26.5827 11.5262L21.1852 9.29228C19.6775 8.6679 18.0787 8.35054 16.4766 8.33435L17.9767 3.32823C20.0005 3.57068 21.9994 4.0792 23.9184 4.85906L28.5667 6.74931C29.8903 7.2871 30.5219 8.79346 29.978 10.1147Z" fill="url(#paint0_linear_3_1184)"/>
<path d="M33.322 10.6746C32.7006 11.9362 31.1691 12.4507 29.9114 11.8207L24.7893 9.2568C22.7957 8.2583 20.5896 7.82819 18.4034 7.97661L16.5493 2.81237C20.3864 2.60522 24.2486 3.37736 27.7558 5.10498L32.1692 7.28004C33.4257 7.89896 33.9417 9.4184 33.322 10.6746Z" fill="url(#paint1_linear_3_1184)"/>
<path d="M35.9614 10.041C35.3434 11.3356 33.7861 11.8838 32.4931 11.2624L27.2275 8.73323C25.1781 7.74819 22.9191 7.34527 20.6881 7.53125L18.7256 2.30198C22.6419 2.02998 26.5969 2.75468 30.202 4.45812L34.7386 6.60278C36.0302 7.21294 36.5775 8.75196 35.9614 10.041Z" fill="url(#paint2_linear_3_1184)"/>
<path d="M24.0002 32.5C30.3158 32.5 35.4355 27.3802 35.4355 21.0647C35.4355 14.7492 30.3158 9.62941 24.0002 9.62941C17.6847 9.62941 12.5649 14.7492 12.5649 21.0647C12.5649 27.3802 17.6847 32.5 24.0002 32.5Z" fill="url(#paint3_linear_3_1184)"/>
<path d="M24.0004 30.2882C29.0944 30.2882 33.2239 26.1587 33.2239 21.0647C33.2239 15.9707 29.0944 11.8412 24.0004 11.8412C18.9064 11.8412 14.7769 15.9707 14.7769 21.0647C14.7769 26.1587 18.9064 30.2882 24.0004 30.2882Z" fill="url(#paint4_linear_3_1184)"/>
<path d="M24.0004 29.1588C28.4706 29.1588 32.0945 25.535 32.0945 21.0647C32.0945 16.5944 28.4706 12.9706 24.0004 12.9706C19.5301 12.9706 15.9062 16.5944 15.9062 21.0647C15.9062 25.535 19.5301 29.1588 24.0004 29.1588Z" fill="url(#paint5_linear_3_1184)"/>
<path d="M24.9114 19.5619V16.8192C26.1325 16.9132 26.4894 17.5143 27.1092 17.5143C27.9358 17.5143 28.2739 16.4811 28.2739 15.9739C28.2739 14.6777 26.0761 14.3772 24.9114 14.3396V13.87C24.9114 13.607 24.5545 13.3628 24.1976 13.3628C23.7843 13.3628 23.4838 13.607 23.4838 13.87V14.396C21.4926 14.6778 19.7267 15.8237 19.7267 18.2094C19.7267 20.6139 21.7555 21.4216 23.4838 22.0791V25.1223C22.0937 24.8781 21.455 23.7697 20.666 23.7697C19.9522 23.7697 19.3887 24.7089 19.3887 25.3477C19.3887 26.55 21.2296 27.7147 23.4838 27.7898V28.2594C23.4838 28.5225 23.7843 28.7666 24.1976 28.7666C24.5545 28.7666 24.9114 28.5224 24.9114 28.2594V27.7147C27.1092 27.3578 28.6121 25.9488 28.6121 23.6195C28.6121 21.0834 26.6209 20.2005 24.9114 19.5619ZM23.6716 19.111C22.9578 18.8104 22.4693 18.4723 22.4693 17.9275C22.4693 17.4767 22.8263 17.0446 23.6716 16.8755V19.111ZM24.7236 25.1035V22.5863C25.3999 22.9056 25.8695 23.3001 25.8695 23.92C25.8694 24.5963 25.3622 24.9532 24.7236 25.1035Z" fill="url(#paint6_linear_3_1184)"/>
<path d="M12.5737 21.4882C12.7966 27.6075 17.8267 32.5 24.0004 32.5C30.174 32.5 35.2041 27.6075 35.4271 21.4882H12.5737Z" fill="url(#paint7_linear_3_1184)"/>
<path d="M34.6553 25.2238C34.6158 25.3254 34.5744 25.4261 34.532 25.5268C32.7936 29.6256 28.7325 32.5 24.0002 32.5C17.6849 32.5 12.5649 27.38 12.5649 21.0647C12.5649 19.3471 12.9433 17.7188 13.6228 16.2572C13.7621 15.9541 13.9155 15.6595 14.0812 15.3725H24.804L34.6553 25.2238Z" fill="url(#paint8_linear_3_1184)"/>
<path d="M35.0044 11.4792L32.9155 9.80559C32.8236 9.7365 32.7309 9.66864 32.6377 9.60192C30.1228 7.80483 27.041 6.98921 23.9562 7.18479C21.3764 7.34836 20.3414 7.49594 16.9707 9.17566C16.3829 9.46855 16.2828 10.0899 16.7472 10.5542L16.8745 10.6814C19.4094 11.7982 21.8339 13.1457 24.1177 14.7059C25.4289 15.6017 25.7359 17.4075 24.8014 18.6916C23.9509 19.8604 22.3561 20.1937 21.1049 19.47C18.9565 18.2272 16.5713 17.4345 14.0963 17.1485C13.6234 17.0938 13.146 17.0911 12.6712 17.1249C11.1754 17.2314 7.55456 17.4638 6.34948 17.3142C6.33837 17.3128 6.32717 17.3115 6.31597 17.3101C3.16153 16.9136 0.646513 14.4843 0.13056 11.3468L0.0998777 11.16C-0.567322 7.10742 2.17865 3.2805 6.23221 2.61396L13.2317 1.463L17.6392 0.78055C24.5552 -0.234415 31.5924 1.52822 37.197 5.67909L38.5547 6.76116C39.8649 7.73114 40.1353 9.5765 39.159 10.8836C38.1793 12.1955 36.3136 12.4626 35.0044 11.4792Z" fill="url(#paint9_linear_3_1184)"/>
<path d="M24.8015 18.6918C23.9509 19.8606 22.3562 20.1939 21.105 19.4701C18.7353 18.0992 16.0775 17.276 13.3287 17.0763C13.2874 17.0733 13.2462 17.0701 13.2049 17.0667C8.56043 16.6816 8.3096 9.97322 12.9121 9.23986C13.2428 9.18715 13.5818 9.23092 13.8882 9.36598L16.8745 10.6816C19.4095 11.7983 21.8339 13.1458 24.1177 14.7061C25.429 15.602 25.736 17.4078 24.8015 18.6918Z" fill="url(#paint10_linear_3_1184)"/>
<path d="M43.9949 48.5H4.00505C2.83272 48.5 1.88232 47.5496 1.88232 46.3773V33.7235H46.1176V46.3773C46.1176 47.5496 45.1672 48.5 43.9949 48.5Z" fill="url(#paint11_linear_3_1184)"/>
<path d="M1.88232 33.7235V37.4882L12.8941 48.5H43.9949C45.1672 48.5 46.1176 47.5496 46.1176 46.3773V33.7235H1.88232Z" fill="url(#paint12_linear_3_1184)"/>
<path d="M1.88232 42.1941V46.3773C1.88232 47.5496 2.83272 48.5 4.00505 48.5H43.9949C45.1672 48.5 46.1176 47.5496 46.1176 46.3773V42.1941H1.88232Z" fill="url(#paint13_linear_3_1184)"/>
<path d="M46.3826 37.4882H1.61741C0.724141 37.4882 0 36.7641 0 35.8708V30.8059C0 29.9126 0.724141 29.1885 1.61741 29.1885H46.3826C47.2759 29.1885 48 29.9126 48 30.8059V35.8708C48 36.7641 47.2759 37.4882 46.3826 37.4882Z" fill="url(#paint14_linear_3_1184)"/>
<path d="M0 32.6882V35.8708C0 36.7641 0.724141 37.4882 1.61741 37.4882H46.3826C47.2759 37.4882 48 36.7641 48 35.8708V32.6882H0Z" fill="url(#paint15_linear_3_1184)"/>
<defs>
<linearGradient id="paint0_linear_3_1184" x1="22.7908" y1="10.8863" x2="23.3617" y2="8.48033" gradientUnits="userSpaceOnUse">
<stop stop-color="#FFEEE6"/>
<stop offset="1" stop-color="#FFB09E"/>
</linearGradient>
<linearGradient id="paint1_linear_3_1184" x1="24.0968" y1="10.8265" x2="24.8834" y2="7.87747" gradientUnits="userSpaceOnUse">
<stop stop-color="#FFEEE6"/>
<stop offset="1" stop-color="#FFB09E"/>
</linearGradient>
<linearGradient id="paint2_linear_3_1184" x1="26.0022" y1="10.7273" x2="26.9809" y2="7.30176" gradientUnits="userSpaceOnUse">
<stop stop-color="#FFEEE6"/>
<stop offset="1" stop-color="#FFB09E"/>
</linearGradient>
<linearGradient id="paint3_linear_3_1184" x1="19.1061" y1="16.1706" x2="33.3196" y2="30.384" gradientUnits="userSpaceOnUse">
<stop stop-color="#FEE45A"/>
<stop offset="1" stop-color="#FE9738"/>
</linearGradient>
<linearGradient id="paint4_linear_3_1184" x1="27.9479" y1="25.0122" x2="16.4836" y2="13.5479" gradientUnits="userSpaceOnUse">
<stop stop-color="#FEE45A"/>
<stop offset="1" stop-color="#FE9738"/>
</linearGradient>
<linearGradient id="paint5_linear_3_1184" x1="20.5363" y1="17.6006" x2="30.5968" y2="27.6611" gradientUnits="userSpaceOnUse">
<stop stop-color="#FEE45A"/>
<stop offset="1" stop-color="#FE9738"/>
</linearGradient>
<linearGradient id="paint6_linear_3_1184" x1="20.4291" y1="18.341" x2="29.4174" y2="24.7881" gradientUnits="userSpaceOnUse">
<stop stop-color="#FE9738"/>
<stop offset="1" stop-color="#F46700"/>
</linearGradient>
<linearGradient id="paint7_linear_3_1184" x1="24.0004" y1="24.1706" x2="24.0004" y2="32.9236" gradientUnits="userSpaceOnUse">
<stop stop-color="#FE7701" stop-opacity="0"/>
<stop offset="0.209" stop-color="#FA7303" stop-opacity="0.209"/>
<stop offset="0.4275" stop-color="#ED6809" stop-opacity="0.428"/>
<stop offset="0.6502" stop-color="#D85613" stop-opacity="0.65"/>
<stop offset="0.8745" stop-color="#BB3C21" stop-opacity="0.875"/>
<stop offset="1" stop-color="#A72B2B"/>
</linearGradient>
<linearGradient id="paint8_linear_3_1184" x1="24.6162" y1="27.2063" x2="20.6992" y2="14.8567" gradientUnits="userSpaceOnUse">
<stop stop-color="#FE7701" stop-opacity="0"/>
<stop offset="0.1854" stop-color="#F87204" stop-opacity="0.185"/>
<stop offset="0.4314" stop-color="#E7630C" stop-opacity="0.431"/>
<stop offset="0.7114" stop-color="#CB4B19" stop-opacity="0.711"/>
<stop offset="1" stop-color="#A72B2B"/>
</linearGradient>
<linearGradient id="paint9_linear_3_1184" x1="15.7525" y1="-2.34839" x2="21.5878" y2="15.0634" gradientUnits="userSpaceOnUse">
<stop stop-color="#FFEEE6"/>
<stop offset="1" stop-color="#FFB09E"/>
</linearGradient>
<linearGradient id="paint10_linear_3_1184" x1="17.4628" y1="15.0814" x2="18.0275" y2="21.7637" gradientUnits="userSpaceOnUse">
<stop stop-color="#F89580" stop-opacity="0"/>
<stop offset="0.3577" stop-color="#E98A75" stop-opacity="0.359"/>
<stop offset="0.9972" stop-color="#C5715A"/>
</linearGradient>
<linearGradient id="paint11_linear_3_1184" x1="21.1949" y1="34.2319" x2="31.9237" y2="57.3837" gradientUnits="userSpaceOnUse">
<stop stop-color="#D9B1EE"/>
<stop offset="1" stop-color="#814AA0"/>
</linearGradient>
<linearGradient id="paint12_linear_3_1184" x1="24" y1="50.1" x2="24" y2="21.834" gradientUnits="userSpaceOnUse">
<stop stop-color="#5B3374" stop-opacity="0"/>
<stop offset="1" stop-color="#5B3374"/>
</linearGradient>
<linearGradient id="paint13_linear_3_1184" x1="24" y1="44.3588" x2="24" y2="49.1279" gradientUnits="userSpaceOnUse">
<stop stop-color="#5B3374" stop-opacity="0"/>
<stop offset="1" stop-color="#5B3374"/>
</linearGradient>
<linearGradient id="paint14_linear_3_1184" x1="20.3471" y1="26.7263" x2="30.2501" y2="44.6517" gradientUnits="userSpaceOnUse">
<stop stop-color="#D9B1EE"/>
<stop offset="1" stop-color="#814AA0"/>
</linearGradient>
<linearGradient id="paint15_linear_3_1184" x1="24" y1="34.1941" x2="24" y2="39.0172" gradientUnits="userSpaceOnUse">
<stop stop-color="#5B3374" stop-opacity="0"/>
<stop offset="1" stop-color="#5B3374"/>
</linearGradient>
</defs>
</svg>
